Coordinates
version=1
nRows=34
nColumns=33
inDegrees=yes

Units are S.I. units (second, meters, Newtons, ...)
Angles are in degrees.

endheader
time	ground_thorax_rot_x	ground_thorax_rot_y	ground_thorax_rot_z	ground_thorax_tx	ground_thorax_ty	ground_thorax_tz	clav_prot_r	clav_elev_r	scapula_abduction_r	scapula_elevation_r	scapula_upward_rot_r	scapula_winging_r	shoulder_elv_r	plane_of_elev_r	axial_rot_r	elbow_flexion_r	pro_sup_r	wrist_flex_r	wrist_dev_r	clav_prot_l	clav_elev_l	scapula_abduction_l	scapula_elevation_l	scapula_upward_rot_l	scapula_winging_l	shoulder_elv_l	plane_of_elev_l	axial_rot_l	elbow_flexion_l	pro_sup_l	wrist_flex_l	wrist_dev_l	
4.5700	-90.000000	90.000000	-90.000000	-90.537537	784.153400	6.537791	35.215437	42.475784	45.000000	45.000000	4.356669	-3986.662999	638.852540	162.980878	-17.898571	1811.510028	26.818698	18.301331	9.995041	-45.000000	5.726081	44.957612	-17.224551	-45.000000	1911.173962	-4028.140181	152.885047	41.615788	-711.273072	26.518062	8.662299	-19.873389	
4.5800	-90.000000	90.000000	-90.000000	-92.515883	784.719679	6.415330	35.141800	42.384607	45.000000	45.000000	4.303121	-3986.541890	638.835500	162.870737	-17.782651	1811.528142	26.664980	18.342293	9.952653	-45.000000	5.680387	44.924828	-17.245874	-45.000000	1910.850277	-4027.992011	152.847171	41.600705	-711.199565	26.168943	8.646314	-19.918847	
4.5900	-90.000000	90.000000	-90.000000	-94.579272	785.340191	6.306795	35.061488	42.287387	45.000000	45.000000	4.273704	-3986.389513	638.805174	162.792248	-17.663427	1811.538549	26.542634	18.391628	9.897150	-45.000000	5.617689	44.863231	-17.242507	-45.000000	1910.563172	-4027.843909	152.801749	41.569172	-711.130179	25.822503	8.626279	-19.963896	
4.6000	-90.000000	90.000000	-90.000000	-96.728327	786.013049	6.214157	34.979202	42.200029	45.000000	45.000000	4.225437	-3986.269846	638.793116	162.652261	-17.523148	1811.580062	26.449526	18.443733	9.847542	-45.000000	5.535472	44.760911	-17.211821	-45.000000	1910.318804	-4027.701963	152.755031	41.515434	-711.062774	25.475811	8.604075	-20.006676	
4.6100	-90.000000	90.000000	-90.000000	-98.962927	786.736267	6.137893	34.888033	42.106974	45.000000	45.000000	4.199228	-3986.124776	638.771738	162.540575	-17.384560	1811.613087	26.379158	18.501579	9.788193	-45.000000	5.438983	44.611964	-17.157340	-45.000000	1910.121993	-4027.571890	152.701195	41.440669	-710.992001	25.119339	8.577294	-20.048339	
4.6200	-90.000000	90.000000	-90.000000	-101.281967	787.507663	6.077390	34.793709	42.021088	45.000000	45.000000	4.165053	-3986.002862	638.759670	162.391627	-17.234375	1811.661738	26.325704	18.558240	9.733690	-45.000000	5.321574	44.419089	-17.082487	-45.000000	1909.966799	-4027.454898	152.642772	41.344859	-710.913789	24.745231	8.547697	-20.088939	
4.6300	-90.000000	90.000000	-90.000000	-103.683432	788.324716	6.031418	34.691740	41.930278	45.000000	45.000000	4.164910	-3985.832184	638.733738	162.306712	-17.090623	1811.689483	26.282104	18.616644	9.671415	-45.000000	5.185984	44.179725	-16.981166	-45.000000	1909.856969	-4027.352251	152.588764	41.233803	-710.844932	24.348780	8.515920	-20.126918	
4.6400	-90.000000	90.000000	-90.000000	-106.164584	789.184368	5.998450	34.590083	41.847418	45.000000	45.000000	4.169047	-3985.676976	638.712135	162.196393	-16.939163	1811.727474	26.242247	18.672759	9.612712	-45.000000	5.029625	43.921668	-16.862060	-45.000000	1909.768627	-4027.247437	152.532953	41.118612	-710.770704	23.926619	8.484263	-20.165619	
4.6500	-90.000000	90.000000	-90.000000	-108.722291	790.082967	5.976935	34.480717	41.761215	45.000000	45.000000	4.201083	-3985.488956	638.684405	162.129899	-16.794144	1811.743726	26.201098	18.727247	9.550766	-45.000000	4.871758	43.653591	-16.737408	-45.000000	1909.688740	-4027.150302	152.477350	41.005212	-710.696027	23.473259	8.451903	-20.203028	
4.6600	-90.000000	90.000000	-90.000000	-111.353046	791.016232	5.965425	34.369758	41.682006	45.000000	45.000000	4.237679	-3985.308331	638.662540	162.046726	-16.642959	1811.761356	26.155254	18.778933	9.494729	-45.000000	4.703415	43.382450	-16.606451	-45.000000	1909.615542	-4027.054373	152.422782	40.895964	-710.627120	22.989767	8.421186	-20.239217	
4.6700	-90.000000	90.000000	-90.000000	-114.053269	791.979463	5.962643	34.252600	41.604006	45.000000	45.000000	4.288182	-3985.109218	638.644697	161.980421	-16.493576	1811.771446	26.101779	18.831433	9.439908	-45.000000	4.539751	43.109968	-16.470150	-45.000000	1909.545153	-4026.962617	152.375043	40.787998	-710.571486	22.478016	8.392499	-20.271058	
4.6800	-90.000000	90.000000	-90.000000	-116.819142	792.967697	5.967460	34.131914	41.530631	45.000000	45.000000	4.335210	-3984.935159	638.635475	161.873705	-16.339429	1811.794125	26.038082	18.882730	9.389613	-45.000000	4.383090	42.850006	-16.337082	-45.000000	1909.466729	-4026.864896	152.321879	40.683529	-710.509713	21.936831	8.364550	-20.301951	
4.6900	-90.000000	90.000000	-90.000000	-119.646408	793.975850	5.978829	34.003306	41.458821	45.000000	45.000000	4.383297	-3984.756215	638.635834	161.769680	-16.181876	1811.812829	25.964560	18.934224	9.343485	-45.000000	4.239425	42.589694	-16.210369	-45.000000	1909.385442	-4026.778427	152.272376	40.575758	-710.453909	21.369887	8.336398	-20.328148	
4.7000	-90.000000	90.000000	-90.000000	-122.530047	794.998811	5.995710	33.871630	41.388576	45.000000	45.000000	4.438522	-3984.581222	638.635259	161.658117	-16.017829	1811.837321	25.879937	18.983385	9.296044	-45.000000	4.099699	42.338606	-16.083464	-45.000000	1909.303091	-4026.685996	152.218747	40.466275	-710.398152	20.786123	8.307254	-20.352639	
4.7100	-90.000000	90.000000	-90.000000	-125.463880	796.031430	6.016980	33.735408	41.319849	45.000000	45.000000	4.499746	-3984.403677	638.638908	161.549881	-15.845103	1811.864133	25.784418	19.032311	9.247543	-45.000000	3.970273	42.096015	-15.959961	-45.000000	1909.216644	-4026.591227	152.165151	40.353421	-710.344389	20.196393	8.278577	-20.374800	
4.7200	-90.000000	90.000000	-90.000000	-128.440563	797.068628	6.041351	33.594714	41.249378	45.000000	45.000000	4.569673	-3984.239168	638.642702	161.428266	-15.663497	1811.896594	25.676335	19.077410	9.194565	-45.000000	3.857145	41.875004	-15.848167	-45.000000	1909.116562	-4026.487249	152.099977	40.242855	-710.274961	19.605491	8.247994	-20.397732	
4.7300	-90.000000	90.000000	-90.000000	-131.451346	798.105384	6.067330	33.448680	41.180867	45.000000	45.000000	4.644683	-3984.067721	638.654606	161.318789	-15.467249	1811.921676	25.558002	19.121219	9.142430	-45.000000	3.752475	41.651420	-15.746913	-45.000000	1909.018914	-4026.393954	152.036514	40.128787	-710.210869	19.024216	8.216952	-20.418398	
4.7400	-90.000000	90.000000	-90.000000	-134.486759	799.137098	6.093235	33.300874	41.114671	45.000000	45.000000	4.727026	-3983.898471	638.671591	161.207477	-15.255831	1811.949483	25.429150	19.163797	9.087175	-45.000000	3.654492	41.432274	-15.647987	-45.000000	1908.923300	-4026.300439	151.975300	40.011734	-710.151735	18.462412	8.183930	-20.437137	
4.7500	-90.000000	90.000000	-90.000000	-137.536722	800.159723	6.117260	33.150137	41.051158	45.000000	45.000000	4.814424	-3983.721322	638.694189	161.105211	-15.030037	1811.976244	25.291162	19.206364	9.029942	-45.000000	3.563771	41.215060	-15.552311	-45.000000	1908.832157	-4026.208011	151.918282	39.888391	-710.102717	17.927460	8.150865	-20.454009	
4.7600	-90.000000	90.000000	-90.000000	-140.591159	801.170060	6.137561	32.998368	40.990530	45.000000	45.000000	4.907908	-3983.540889	638.721303	161.004400	-14.790262	1812.006846	25.144842	19.248752	8.969062	-45.000000	3.478547	41.002366	-15.455099	-45.000000	1908.746390	-4026.112409	151.865464	39.755423	-710.063311	17.423022	8.116330	-20.469411	
4.7700	-90.000000	90.000000	-90.000000	-143.640032	802.165787	6.152356	32.847260	40.935897	45.000000	45.000000	5.006217	-3983.344730	638.754283	160.919534	-14.533360	1812.037778	24.993449	19.292657	8.906509	-45.000000	3.388233	40.781722	-15.350377	-45.000000	1908.678869	-4026.016036	151.821755	39.608473	-710.045902	16.955099	8.081601	-20.483175	
4.7800	-90.000000	90.000000	-90.000000	-146.673800	803.145578	6.160040	32.699353	40.887994	45.000000	45.000000	5.110824	-3983.137814	638.792409	160.846243	-14.259390	1812.071925	24.839766	19.337190	8.840067	-45.000000	3.289947	40.560450	-15.237143	-45.000000	1908.626755	-4025.912572	151.781532	39.445593	-710.045178	16.526416	8.046219	-20.496677	
4.7900	-90.000000	90.000000	-90.000000	-149.683441	804.108977	6.159306	32.552351	40.842642	45.000000	45.000000	5.218720	-3982.934844	638.832516	160.772040	-13.972232	1812.109184	24.684322	19.379943	8.767579	-45.000000	3.196207	40.348994	-15.128667	-45.000000	1908.574694	-4025.799197	151.737222	39.270777	-710.043900	16.130135	8.009080	-20.511877	
4.8000	-90.000000	90.000000	-90.000000	-152.660672	805.056304	6.149259	32.404571	40.798147	45.000000	45.000000	5.329785	-3982.734640	638.877293	160.700483	-13.673160	1812.147343	24.527042	19.420119	8.691326	-45.000000	3.110162	40.144222	-15.026306	-45.000000	1908.522605	-4025.681161	151.690815	39.080480	-710.040942	15.757490	7.971003	-20.528218	
4.8100	-90.000000	90.000000	-90.000000	-155.598031	805.988455	6.129547	32.256721	40.754975	45.000000	45.000000	5.443499	-3982.539377	638.926510	160.631993	-13.361729	1812.185481	24.368196	19.457186	8.611721	-45.000000	3.028904	39.946294	-14.932087	-45.000000	1908.469479	-4025.556512	151.638490	38.874474	-710.031154	15.399679	7.932598	-20.546453	
4.8200	-90.000000	90.000000	-90.000000	-158.489185	806.906808	6.100451	32.109081	40.712503	45.000000	45.000000	5.561272	-3982.348706	638.979843	160.564501	-13.040256	1812.227703	24.207542	19.491866	8.528934	-45.000000	2.955191	39.757509	-14.842204	-45.000000	1908.415442	-4025.424127	151.584018	38.649894	-710.020917	15.049830	7.895148	-20.564392	
4.8300	-90.000000	90.000000	-90.000000	-161.329128	807.813114	6.062926	31.960248	40.667612	45.000000	45.000000	5.679628	-3982.172650	639.033575	160.487505	-12.712694	1812.271745	24.043360	19.521797	8.442529	-45.000000	2.897349	39.585225	-14.765166	-45.000000	1908.348588	-4025.281835	151.521271	38.411106	-709.992517	14.696008	7.857902	-20.583637	
4.8400	-90.000000	90.000000	-90.000000	-164.114094	808.709366	6.018555	31.809877	40.622107	45.000000	45.000000	5.796335	-3981.999380	639.090835	160.414285	-12.379532	1812.312980	23.875404	19.548244	8.357463	-45.000000	2.850171	39.414256	-14.695269	-45.000000	1908.281631	-4025.141141	151.459516	38.152004	-709.962246	14.332216	7.822570	-20.601024	
4.8500	-90.000000	90.000000	-90.000000	-166.841492	809.597699	5.969402	31.660506	40.578450	45.000000	45.000000	5.911549	-3981.823204	639.150118	160.351712	-12.040257	1812.348461	23.704431	19.571417	8.274757	-45.000000	2.803520	39.242332	-14.629805	-45.000000	1908.220003	-4025.000138	151.396300	37.875383	-709.931466	13.956270	7.789355	-20.616886	
4.8600	-90.000000	90.000000	-90.000000	-169.509785	810.480329	5.917783	31.512750	40.536523	45.000000	45.000000	6.025341	-3981.649576	639.210699	160.292272	-11.698343	1812.381098	23.529199	19.591777	8.193966	-45.000000	2.760075	39.070544	-14.566287	-45.000000	1908.162341	-4024.859231	151.335610	37.580744	-709.904389	13.567787	7.757697	-20.629608	
4.8700	-90.000000	90.000000	-90.000000	-172.118354	811.359484	5.865985	31.365896	40.495555	45.000000	45.000000	6.136553	-3981.478418	639.271429	160.237051	-11.355936	1812.408379	23.347930	19.608565	8.116162	-45.000000	2.719778	38.898306	-14.506755	-45.000000	1908.107626	-4024.718694	151.274874	37.272483	-709.876138	13.166002	7.727173	-20.640001	
4.8800	-90.000000	90.000000	-90.000000	-174.667172	812.237264	5.815973	31.220233	40.455659	45.000000	45.000000	6.246832	-3981.313861	639.331528	160.179641	-11.015885	1812.434779	23.157241	19.622663	8.040684	-45.000000	2.682845	38.728897	-14.448189	-45.000000	1908.053679	-4024.576055	151.216000	36.948690	-709.848193	12.752496	7.697193	-20.647432	
4.8900	-90.000000	90.000000	-90.000000	-177.156545	813.115483	5.769180	31.076705	40.419312	45.000000	45.000000	6.356879	-3981.140967	639.391530	160.136423	-10.675272	1812.459505	22.956565	19.635641	7.969965	-45.000000	2.640907	38.554970	-14.383042	-45.000000	1908.012687	-4024.431758	151.161000	36.608559	-709.834273	12.333642	7.669165	-20.650593	
4.9000	-90.000000	90.000000	-90.000000	-179.586873	813.995490	5.726411	30.936270	40.383042	45.000000	45.000000	6.469991	-3980.990630	639.444087	160.072441	-10.341193	1812.488886	22.740812	19.645547	7.896316	-45.000000	2.602435	38.402549	-14.320836	-45.000000	1907.959569	-4024.269334	151.096920	36.257990	-709.806485	11.909103	7.638262	-20.653249	
